<svg version="1.1" xmlns="http://www.w3.org/2000/svg" viewBox="0 0 1166.0000000000002 797" width="1166.0000000000002" height="797">
  <!-- svg-source:excalidraw -->
  
  <defs>
    <style>
      @font-face {
        font-family: "Virgil";
        src: url("https://excalidraw.com/Virgil.woff2");
      }
      @font-face {
        font-family: "Cascadia";
        src: url("https://excalidraw.com/Cascadia.woff2");
      }
    </style>
  </defs>
  <rect x="0" y="0" width="1166.0000000000002" height="797" fill="#ffffff"></rect><g stroke-linecap="round" transform="translate(111 10.000000000000028) rotate(0 343 388.5)"><path d="M-0.49 -0.03 C226.12 -0.33, 450.73 -0.94, 686.59 0.47 M-0.25 -0.18 C200.34 -1.16, 400.71 -1.33, 686.01 -0.31 M686.42 -0.51 C684.86 268.75, 686.17 536.35, 686.46 777.14 M686.21 0.23 C687.97 175.42, 687.85 351.76, 685.7 777.24 M685.22 777.23 C527.18 774.91, 368.66 773.88, 0.71 777.64 M685.8 776.63 C537.35 777.04, 387.94 777.48, -0.2 776.98 M0.15 776.56 C-0.13 555.29, 0.33 333.3, -0.77 -0.1 M0.21 777.13 C0.06 554.84, 0.07 332.28, 0.3 -0.29" stroke="#000000" stroke-width="1" fill="none"></path></g><g stroke-linecap="round"><g transform="translate(113.1919664731995 30.85118129917936) rotate(0 341.9818865284602 0.8742565517044767)"><path d="M0.36 0.94 C114.48 1.19, 570.58 1.9, 684.87 1.72 M-0.9 0.39 C113.02 0.29, 569.3 -0.04, 683.76 0" stroke="#000000" stroke-width="1" fill="none"></path></g></g><g stroke-linecap="round" transform="translate(176 137.00000000000003) rotate(0 107.10622927593397 14.732083580704668)"><path d="M0 0 C76.57 0, 153.13 0, 214.21 0 M0 0 C51.68 0, 103.37 0, 214.21 0 M214.21 0 C214.21 6.81, 214.21 13.62, 214.21 29.46 M214.21 0 C214.21 7.42, 214.21 14.85, 214.21 29.46 M214.21 29.46 C154.57 29.46, 94.93 29.46, 0 29.46 M214.21 29.46 C158.34 29.46, 102.47 29.46, 0 29.46 M0 29.46 C0 22.61, 0 15.75, 0 0 M0 29.46 C0 19.03, 0 8.59, 0 0" stroke="#000000" stroke-width="1" fill="none"></path></g><g stroke-opacity="0.3" fill-opacity="0.3" transform="translate(194.31556337060647 143.0613101190593) rotate(0 45.60282412788979 9.354425462131246)"><text x="0" y="14.708850924262482" font-family="Cascadia, Segoe UI Emoji" font-size="15.590709103552069px" fill="#000000" text-anchor="start" style="white-space: pre;" direction="ltr">write here</text></g><g stroke-linecap="round" transform="translate(530.0355477234807 138.7255847429458) rotate(0 58.49737765341126 13.137207628527236)"><path d="M0 0 C44.24 0, 88.47 0, 116.99 0 M0 0 C46.2 0, 92.39 0, 116.99 0 M116.99 0 C116.99 5.8, 116.99 11.59, 116.99 26.27 M116.99 0 C116.99 6.2, 116.99 12.41, 116.99 26.27 M116.99 26.27 C83.94 26.27, 50.88 26.27, 0 26.27 M116.99 26.27 C70.52 26.27, 24.05 26.27, 0 26.27 M0 26.27 C0 16.14, 0 6, 0 0 M0 26.27 C0 16.96, 0 7.64, 0 0" stroke="#000000" stroke-width="1" fill="none"></path></g><g transform="translate(561.5948741918587 143.1794215516609) rotate(0 28.11052095943478 9.637892900377636)"><text x="28.110520959434766" y="15.27578580075528" font-family="Cascadia, Segoe UI Emoji" font-size="16.063154833962738px" fill="#000000" text-anchor="middle" style="white-space: pre;" direction="ltr">remove</text></g><g transform="translate(352.2093023255811 60.00000000000003) rotate(0 106 24)"><text x="106" y="39" font-family="Cascadia, Segoe UI Emoji" font-size="40.1860465116279px" fill="#343a40" text-anchor="middle" style="white-space: pre;" direction="ltr">Word-list</text></g><g stroke-linecap="round" transform="translate(425.05805810317634 139.16363284317086) rotate(0 46.583149018491895 12.850523867170168)"><path d="M0 0 C32.27 0, 64.53 0, 93.17 0 M0 0 C34.95 0, 69.9 0, 93.17 0 M93.17 0 C93.17 5.57, 93.17 11.14, 93.17 25.7 M93.17 0 C93.17 8.2, 93.17 16.4, 93.17 25.7 M93.17 25.7 C60.25 25.7, 27.33 25.7, 0 25.7 M93.17 25.7 C59.84 25.7, 26.52 25.7, 0 25.7 M0 25.7 C0 18.71, 0 11.71, 0 0 M0 25.7 C0 15.98, 0 6.27, 0 0" stroke="#000000" stroke-width="1" fill="none"></path></g><g transform="translate(459.1922621253466 143.98257929335912) rotate(0 14.05526047971739 9.63789290037765)"><text x="14.05526047971739" y="15.275785800755287" font-family="Cascadia, Segoe UI Emoji" font-size="16.06315483396274px" fill="#000000" text-anchor="middle" style="white-space: pre;" direction="ltr">add</text></g><g stroke-linecap="round" transform="translate(112 12.000000000000028) rotate(0 342 11)"><path d="M0 0 L684 0 L684 22 L0 22" stroke="none" stroke-width="0" fill="#868e96"></path><path d="M0 0 C164.69 0, 329.37 0, 684 0 M0 0 C233.5 0, 466.99 0, 684 0 M684 0 C684 8.68, 684 17.36, 684 22 M684 0 C684 7.78, 684 15.56, 684 22 M684 22 C487.03 22, 290.06 22, 0 22 M684 22 C479.56 22, 275.11 22, 0 22 M0 22 C0 15.16, 0 8.33, 0 0 M0 22 C0 14.82, 0 7.63, 0 0" stroke="#000000" stroke-width="1" fill="none"></path></g><g stroke-linecap="round" transform="translate(113 763.0000000000002) rotate(0 341.5 11.5)"><path d="M0 0 L683 0 L683 23 L0 23" stroke="none" stroke-width="0" fill="#868e96"></path><path d="M0 0 C189.71 0, 379.43 0, 683 0 M0 0 C252.44 0, 504.89 0, 683 0 M683 0 C683 5.63, 683 11.25, 683 23 M683 0 C683 7.31, 683 14.62, 683 23 M683 23 C434.89 23, 186.78 23, 0 23 M683 23 C482.15 23, 281.29 23, 0 23 M0 23 C0 16.86, 0 10.72, 0 0 M0 23 C0 16.95, 0 10.89, 0 0" stroke="#000000" stroke-width="1" fill="none"></path></g><g stroke-opacity="0.3" fill-opacity="0.3" stroke-linecap="round" transform="translate(210.0000000000001 220) rotate(0 228.72222222222211 258)"><path d="M-0.16 -0.68 C156.29 -2.03, 311.91 -1.83, 457.87 -0.54 M0.03 -0.18 C155.69 -0.64, 312.23 -0.15, 457.77 -0.39 M457.72 0.65 C456.14 135.31, 456.22 272.62, 456.75 515.4 M457.28 0.36 C455.63 128.72, 456.05 257.13, 457.83 515.76 M457.81 515.46 C359.88 517.64, 263.64 517.95, 0.14 515.09 M457.05 515.71 C304.11 517.72, 149.6 517.55, -0.08 516.04 M-0.72 516.38 C1.42 395.1, 1.13 273.55, -0.02 -0.77 M0.28 516.29 C0.29 329.54, -0.05 143.83, -0.22 -0.04" stroke="#495057" stroke-width="1" fill="none"></path></g><g transform="translate(163 187.50000000000003) rotate(0 61 9.5)"><text x="0" y="15" font-family="Cascadia, Segoe UI Emoji" font-size="16px" fill="#000000" text-anchor="start" style="white-space: pre;" direction="ltr">Sort list by:</text></g><g transform="translate(846.9999999999998 154.50000000000003) rotate(0 117 38)"><text x="0" y="15" font-family="Cascadia, Segoe UI Emoji" font-size="16px" fill="#000000" text-anchor="start" style="white-space: pre;" direction="ltr">list will be sorted by </text><text x="0" y="34" font-family="Cascadia, Segoe UI Emoji" font-size="16px" fill="#000000" text-anchor="start" style="white-space: pre;" direction="ltr">* alphabetical a&lt;z / z&gt;a</text><text x="0" y="53" font-family="Cascadia, Segoe UI Emoji" font-size="16px" fill="#000000" text-anchor="start" style="white-space: pre;" direction="ltr">* new&gt;old / old&gt;new</text><text x="0" y="72" font-family="Cascadia, Segoe UI Emoji" font-size="16px" fill="#000000" text-anchor="start" style="white-space: pre;" direction="ltr">* long&gt;short / short&gt;long</text></g><g stroke-linecap="round"><g transform="translate(300 196.04648218760326) rotate(0 265 -0.908908299643457)"><path d="M0 0 C88.33 -0.3, 441.67 -1.51, 530 -1.82 M0 0 C88.33 -0.3, 441.67 -1.51, 530 -1.82" stroke="#000000" stroke-width="1" fill="none"></path></g><g transform="translate(300 196.04648218760326) rotate(0 265 -0.908908299643457)"><path d="M501.84 8.54 C512.02 4.8, 522.19 1.05, 530 -1.82 M501.84 8.54 C508.83 5.97, 515.83 3.4, 530 -1.82" stroke="#000000" stroke-width="1" fill="none"></path></g><g transform="translate(300 196.04648218760326) rotate(0 265 -0.908908299643457)"><path d="M501.77 -11.98 C511.97 -8.31, 522.18 -4.64, 530 -1.82 M501.77 -11.98 C508.78 -9.46, 515.79 -6.93, 530 -1.82" stroke="#000000" stroke-width="1" fill="none"></path></g></g><g stroke-linecap="round"><g transform="translate(297 94.00000000000003) rotate(0 -110.5 1)"><path d="M0 0 C-36.83 0.33, -184.17 1.67, -221 2 M0 0 C-36.83 0.33, -184.17 1.67, -221 2" stroke="#000000" stroke-width="1" fill="none"></path></g><g transform="translate(297 94.00000000000003) rotate(0 -110.5 1)"><path d="M-192.9 -8.52 C-204.11 -4.32, -215.32 -0.13, -221 2 M-192.9 -8.52 C-199.06 -6.21, -205.21 -3.91, -221 2" stroke="#000000" stroke-width="1" fill="none"></path></g><g transform="translate(297 94.00000000000003) rotate(0 -110.5 1)"><path d="M-192.72 12.01 C-204 8.01, -215.28 4.02, -221 2 M-192.72 12.01 C-198.91 9.81, -205.1 7.62, -221 2" stroke="#000000" stroke-width="1" fill="none"></path></g></g><g transform="translate(11 87.50000000000003) rotate(0 23.5 9.5)"><text x="0" y="15" font-family="Cascadia, Segoe UI Emoji" font-size="16px" fill="#000000" text-anchor="start" style="white-space: pre;" direction="ltr">Title</text></g><g stroke-linecap="round"><g transform="translate(175 156.00000000000003) rotate(0 -49 -0.5)"><path d="M0 0 C-16.33 -0.17, -81.67 -0.83, -98 -1 M0 0 C-16.33 -0.17, -81.67 -0.83, -98 -1" stroke="#000000" stroke-width="1" fill="none"></path></g><g transform="translate(175 156.00000000000003) rotate(0 -49 -0.5)"><path d="M-69.71 -10.97 C-80.31 -7.24, -90.91 -3.5, -98 -1 M-69.71 -10.97 C-77.66 -8.17, -85.62 -5.36, -98 -1" stroke="#000000" stroke-width="1" fill="none"></path></g><g transform="translate(175 156.00000000000003) rotate(0 -49 -0.5)"><path d="M-69.92 9.55 C-80.44 5.6, -90.96 1.64, -98 -1 M-69.92 9.55 C-77.82 6.58, -85.71 3.61, -98 -1" stroke="#000000" stroke-width="1" fill="none"></path></g></g><g transform="translate(10 146.50000000000003) rotate(0 23.5 9.5)"><text x="0" y="15" font-family="Cascadia, Segoe UI Emoji" font-size="16px" fill="#000000" text-anchor="start" style="white-space: pre;" direction="ltr">Input</text></g><g stroke-linecap="round"><g transform="translate(651.0000000000002 156.00000000000003) rotate(0 158 -23.5)"><path d="M0 0 C52.67 -7.83, 263.33 -39.17, 316 -47 M0 0 C52.67 -7.83, 263.33 -39.17, 316 -47" stroke="#000000" stroke-width="1" fill="none"></path></g><g transform="translate(651.0000000000002 156.00000000000003) rotate(0 158 -23.5)"><path d="M289.63 -32.7 C299.8 -38.22, 309.98 -43.74, 316 -47 M289.63 -32.7 C299.29 -37.94, 308.95 -43.18, 316 -47" stroke="#000000" stroke-width="1" fill="none"></path></g><g transform="translate(651.0000000000002 156.00000000000003) rotate(0 158 -23.5)"><path d="M286.61 -53 C297.95 -50.69, 309.29 -48.37, 316 -47 M286.61 -53 C297.38 -50.8, 308.15 -48.6, 316 -47" stroke="#000000" stroke-width="1" fill="none"></path></g></g><g transform="translate(978.0000000000002 86.50000000000003) rotate(0 89 19)"><text x="0" y="15" font-family="Cascadia, Segoe UI Emoji" font-size="16px" fill="#000000" text-anchor="start" style="white-space: pre;" direction="ltr">Add and remove </text><text x="0" y="34" font-family="Cascadia, Segoe UI Emoji" font-size="16px" fill="#000000" text-anchor="start" style="white-space: pre;" direction="ltr">interactive buttons</text></g><g transform="translate(17.5555555555556 279.2777777777777) rotate(0 19.00000000000003 9.5)"><text x="0" y="15" font-family="Cascadia, Segoe UI Emoji" font-size="16px" fill="#000000" text-anchor="start" style="white-space: pre;" direction="ltr">List</text></g><g stroke-linecap="round"><g transform="translate(224.7878498138681 276.0134755806409) rotate(3.9019912050572523 -79.08135619612074 6.154719796818313)"><path d="M0 0 C-26.36 2.05, -131.8 10.26, -158.16 12.31 M0 0 C-26.36 2.05, -131.8 10.26, -158.16 12.31" stroke="#000000" stroke-width="1" fill="none"></path></g><g transform="translate(224.7878498138681 276.0134755806409) rotate(3.9019912050572523 -79.08135619612074 6.154719796818313)"><path d="M-130.85 -0.11 C-136.88 2.63, -142.9 5.37, -158.16 12.31 M-130.85 -0.11 C-140.11 4.1, -149.37 8.31, -158.16 12.31" stroke="#000000" stroke-width="1" fill="none"></path></g><g transform="translate(224.7878498138681 276.0134755806409) rotate(3.9019912050572523 -79.08135619612074 6.154719796818313)"><path d="M-129.26 20.35 C-135.64 18.58, -142.01 16.8, -158.16 12.31 M-129.26 20.35 C-139.06 17.63, -148.86 14.9, -158.16 12.31" stroke="#000000" stroke-width="1" fill="none"></path></g></g><g stroke-opacity="0.8" fill-opacity="0.8" stroke-linecap="round" transform="translate(233 263.44444444444457) rotate(0 8.0555555555556 6.388888888888886)"><path d="M8.06 0 C9.7 -0.08, 11.91 0.61, 13.23 1.49 C14.56 2.37, 15.69 3.93, 15.99 5.28 C16.29 6.63, 15.89 8.4, 15.03 9.58 C14.17 10.77, 12.43 11.92, 10.81 12.39 C9.19 12.86, 6.92 12.86, 5.3 12.39 C3.68 11.92, 1.94 10.77, 1.08 9.58 C0.22 8.4, -0.18 6.63, 0.12 5.28 C0.42 3.93, 1.56 2.37, 2.88 1.49 C4.2 0.61, 7.19 0.23, 8.06 0 C8.92 -0.23, 8.06 0.02, 8.06 0.13 M8.06 0 C9.7 -0.08, 11.91 0.61, 13.23 1.49 C14.56 2.37, 15.69 3.93, 15.99 5.28 C16.29 6.63, 15.89 8.4, 15.03 9.58 C14.17 10.77, 12.43 11.92, 10.81 12.39 C9.19 12.86, 6.92 12.86, 5.3 12.39 C3.68 11.92, 1.94 10.77, 1.08 9.58 C0.22 8.4, -0.18 6.63, 0.12 5.28 C0.42 3.93, 1.56 2.37, 2.88 1.49 C4.2 0.61, 7.19 0.23, 8.06 0 C8.92 -0.23, 8.06 0.02, 8.06 0.13" stroke="none" stroke-width="0" fill="#000000"></path><path d="M8.06 0 C9.7 -0.08, 11.91 0.61, 13.23 1.49 C14.56 2.37, 15.69 3.93, 15.99 5.28 C16.29 6.63, 15.89 8.4, 15.03 9.58 C14.17 10.77, 12.43 11.92, 10.81 12.39 C9.19 12.86, 6.92 12.86, 5.3 12.39 C3.68 11.92, 1.94 10.77, 1.08 9.58 C0.22 8.4, -0.18 6.63, 0.12 5.28 C0.42 3.93, 1.56 2.37, 2.88 1.49 C4.2 0.61, 7.19 0.23, 8.06 0 C8.92 -0.23, 8.06 0.02, 8.06 0.13 M8.06 0 C9.7 -0.08, 11.91 0.61, 13.23 1.49 C14.56 2.37, 15.69 3.93, 15.99 5.28 C16.29 6.63, 15.89 8.4, 15.03 9.58 C14.17 10.77, 12.43 11.92, 10.81 12.39 C9.19 12.86, 6.92 12.86, 5.3 12.39 C3.68 11.92, 1.94 10.77, 1.08 9.58 C0.22 8.4, -0.18 6.63, 0.12 5.28 C0.42 3.93, 1.56 2.37, 2.88 1.49 C4.2 0.61, 7.19 0.23, 8.06 0 C8.92 -0.23, 8.06 0.02, 8.06 0.13" stroke="#000000" stroke-width="1" fill="none"></path></g><g stroke-opacity="0.8" fill-opacity="0.8" stroke-linecap="round" transform="translate(233.21825396825432 287.138888888889) rotate(0 8.0555555555556 6.388888888888886)"><path d="M8.06 0 C9.7 -0.08, 11.91 0.61, 13.23 1.49 C14.56 2.37, 15.69 3.93, 15.99 5.28 C16.29 6.63, 15.89 8.4, 15.03 9.58 C14.17 10.77, 12.43 11.92, 10.81 12.39 C9.19 12.86, 6.92 12.86, 5.3 12.39 C3.68 11.92, 1.94 10.77, 1.08 9.58 C0.22 8.4, -0.18 6.63, 0.12 5.28 C0.42 3.93, 1.56 2.37, 2.88 1.49 C4.2 0.61, 7.19 0.23, 8.06 0 C8.92 -0.23, 8.06 0.02, 8.06 0.13 M8.06 0 C9.7 -0.08, 11.91 0.61, 13.23 1.49 C14.56 2.37, 15.69 3.93, 15.99 5.28 C16.29 6.63, 15.89 8.4, 15.03 9.58 C14.17 10.77, 12.43 11.92, 10.81 12.39 C9.19 12.86, 6.92 12.86, 5.3 12.39 C3.68 11.92, 1.94 10.77, 1.08 9.58 C0.22 8.4, -0.18 6.63, 0.12 5.28 C0.42 3.93, 1.56 2.37, 2.88 1.49 C4.2 0.61, 7.19 0.23, 8.06 0 C8.92 -0.23, 8.06 0.02, 8.06 0.13" stroke="none" stroke-width="0" fill="#000000"></path><path d="M8.06 0 C9.7 -0.08, 11.91 0.61, 13.23 1.49 C14.56 2.37, 15.69 3.93, 15.99 5.28 C16.29 6.63, 15.89 8.4, 15.03 9.58 C14.17 10.77, 12.43 11.92, 10.81 12.39 C9.19 12.86, 6.92 12.86, 5.3 12.39 C3.68 11.92, 1.94 10.77, 1.08 9.58 C0.22 8.4, -0.18 6.63, 0.12 5.28 C0.42 3.93, 1.56 2.37, 2.88 1.49 C4.2 0.61, 7.19 0.23, 8.06 0 C8.92 -0.23, 8.06 0.02, 8.06 0.13 M8.06 0 C9.7 -0.08, 11.91 0.61, 13.23 1.49 C14.56 2.37, 15.69 3.93, 15.99 5.28 C16.29 6.63, 15.89 8.4, 15.03 9.58 C14.17 10.77, 12.43 11.92, 10.81 12.39 C9.19 12.86, 6.92 12.86, 5.3 12.39 C3.68 11.92, 1.94 10.77, 1.08 9.58 C0.22 8.4, -0.18 6.63, 0.12 5.28 C0.42 3.93, 1.56 2.37, 2.88 1.49 C4.2 0.61, 7.19 0.23, 8.06 0 C8.92 -0.23, 8.06 0.02, 8.06 0.13" stroke="#000000" stroke-width="1" fill="none"></path></g><g stroke-opacity="0.8" fill-opacity="0.8" stroke-linecap="round" transform="translate(234.21825396825432 312.138888888889) rotate(0 8.0555555555556 6.388888888888886)"><path d="M8.06 0 C9.7 -0.08, 11.91 0.61, 13.23 1.49 C14.56 2.37, 15.69 3.93, 15.99 5.28 C16.29 6.63, 15.89 8.4, 15.03 9.58 C14.17 10.77, 12.43 11.92, 10.81 12.39 C9.19 12.86, 6.92 12.86, 5.3 12.39 C3.68 11.92, 1.94 10.77, 1.08 9.58 C0.22 8.4, -0.18 6.63, 0.12 5.28 C0.42 3.93, 1.56 2.37, 2.88 1.49 C4.2 0.61, 7.19 0.23, 8.06 0 C8.92 -0.23, 8.06 0.02, 8.06 0.13 M8.06 0 C9.7 -0.08, 11.91 0.61, 13.23 1.49 C14.56 2.37, 15.69 3.93, 15.99 5.28 C16.29 6.63, 15.89 8.4, 15.03 9.58 C14.17 10.77, 12.43 11.92, 10.81 12.39 C9.19 12.86, 6.92 12.86, 5.3 12.39 C3.68 11.92, 1.94 10.77, 1.08 9.58 C0.22 8.4, -0.18 6.63, 0.12 5.28 C0.42 3.93, 1.56 2.37, 2.88 1.49 C4.2 0.61, 7.19 0.23, 8.06 0 C8.92 -0.23, 8.06 0.02, 8.06 0.13" stroke="none" stroke-width="0" fill="#000000"></path><path d="M8.06 0 C9.7 -0.08, 11.91 0.61, 13.23 1.49 C14.56 2.37, 15.69 3.93, 15.99 5.28 C16.29 6.63, 15.89 8.4, 15.03 9.58 C14.17 10.77, 12.43 11.92, 10.81 12.39 C9.19 12.86, 6.92 12.86, 5.3 12.39 C3.68 11.92, 1.94 10.77, 1.08 9.58 C0.22 8.4, -0.18 6.63, 0.12 5.28 C0.42 3.93, 1.56 2.37, 2.88 1.49 C4.2 0.61, 7.19 0.23, 8.06 0 C8.92 -0.23, 8.06 0.02, 8.06 0.13 M8.06 0 C9.7 -0.08, 11.91 0.61, 13.23 1.49 C14.56 2.37, 15.69 3.93, 15.99 5.28 C16.29 6.63, 15.89 8.4, 15.03 9.58 C14.17 10.77, 12.43 11.92, 10.81 12.39 C9.19 12.86, 6.92 12.86, 5.3 12.39 C3.68 11.92, 1.94 10.77, 1.08 9.58 C0.22 8.4, -0.18 6.63, 0.12 5.28 C0.42 3.93, 1.56 2.37, 2.88 1.49 C4.2 0.61, 7.19 0.23, 8.06 0 C8.92 -0.23, 8.06 0.02, 8.06 0.13" stroke="#000000" stroke-width="1" fill="none"></path></g></svg>